# xmcd CD database file
# Copyright (C) 1996 Ti Kan
#
# Track frame offsets:
#	150
#	21555
#	41610
#	59187
#	77875
#	102342
#	129237
#	158220
#	179940
#	197765
#	222970
#	238982
#	259962
#	284080
# Disc length: 4128 seconds
#
# Revision: 1
# Processed by: cddbd v1.4b41PL2 Copyright (c) Steve Scherf et al.
# Submitted via: CDCOPY 4.900
#
DISCID=e6101e0e
DTITLE=Resurrection Life Church - Let The World See
DYEAR=1900
DGENRE=
TTITLE0=Let The World See
TTITLE1=All Around
TTITLE2=Finish The Work
TTITLE3=Faithful To Me
TTITLE4=You Never Let Us Down
TTITLE5=You've Won My Affection
TTITLE6=I Surrender
TTITLE7=We Agree
TTITLE8=It's Good That I Have Grace
TTITLE9=Jesus You Gave It All
TTITLE10=You Are Holy
TTITLE11=The Healing Song
TTITLE12=Trading My Sorrows
TTITLE13=Let There Be Joy
EXTD=
EXTT0=
EXTT1=
EXTT2=
EXTT3=
EXTT4=
EXTT5=
EXTT6=
EXTT7=
EXTT8=
EXTT9=
EXTT10=
EXTT11=
EXTT12=
EXTT13=
PLAYORDER=
